<mxfile host="app.diagrams.net" modified="2023-08-08T11:55:45.117Z" agent="Mozilla/5.0 (X11; Linux x86_64) AppleWebKit/537.36 (KHTML, like Gecko) Chrome/114.0.0.0 YaBrowser/23.7.1.1215 Yowser/2.5 Safari/537.36" version="21.6.6" etag="IcN0bBcP7D-ItZdkgFdF" type="github">
  <diagram name="Страница 1" id="wJ6WUiy5JfuxWuSykNve">
    <mxGraphModel>
      <root>
        <mxCell id="0" />
        <mxCell id="1" parent="0" />
      </root>
    </mxGraphModel>
  </diagram>
</mxfile>
